<svg width="130" height="40" viewBox="0 0 130 40" fill="none" xmlns="http://www.w3.org/2000/svg">
  <g clip-path="url(#clip0_948_17059)">
    <path d="M0 40H129.802V0.00141907H0V40Z" fill="white"/>
    <path d="M34.0586 5.02678L32.0254 11.6349C29.761 10.3414 27.4505 9.69446 24.0309 9.69446C15.3431 9.69446 11.8773 15.7941 11.8773 21.8941C11.8773 27.2544 15.1121 30.3042 20.7499 30.3042C23.7536 30.3042 26.6188 29.6572 28.8831 28.5022L27.9587 35.434C25.833 36.1269 22.3211 36.6816 19.3637 36.6816C9.15098 36.6816 3.00488 30.7203 3.00488 21.6628C3.00488 10.988 10.4449 3.31721 22.6907 3.31721C27.2657 3.31721 31.1011 3.91797 34.0586 5.02678Z" fill="#00A189"/>
    <path d="M52.7737 10.5299L45.9343 23.1454H54.2525L52.8658 10.5299H52.7737ZM59.3817 3.87574L64.6499 36.1309H55.962L55.084 29.2455H42.5608L38.7252 36.1309H29.3906L48.5684 3.87574H59.3817Z" fill="#00A189"/>
    <path d="M80.779 9.97526L79.3002 17.277H82.2115C85.5388 17.277 88.8658 16.5372 88.8658 13.3029C88.8658 10.4377 86.6479 9.97526 84.707 9.97526H80.779ZM73.6164 3.87574H84.707C92.6551 3.87574 97.4609 5.53924 97.4609 12.1012C97.4609 16.7685 94.504 19.5876 88.0805 20.3729V20.4654C89.929 20.6503 91.0377 22.4988 91.6847 25.2252L94.226 36.1309H85.6309L83.9214 27.6281C83.1358 23.6539 82.7199 23.3766 78.8381 23.3766H78.0528L75.4649 36.1309H66.8232L73.6164 3.87574Z" fill="#00A189"/>
    <path d="M126.392 3.87574L125.145 9.97526H110.958L109.479 16.63H122.927L121.587 22.7296H108.186L106.614 30.0309H121.356L120.108 36.1309H96.7715L103.703 3.87574H126.392Z" fill="#00A189"/>
  </g>
  <defs>
    <clipPath id="clip0_948_17059">
      <rect width="129.803" height="40" fill="white"/>
    </clipPath>
  </defs>
</svg>
