<svg width="24" height="24" viewBox="0 0 24 24" fill="currentColor" xmlns="http://www.w3.org/2000/svg">
  <path d="M4.11581 11.6609L6.84581 8.6609C6.9159 8.59088 7.00487 8.5428 7.10185 8.52252C7.19882 8.50224 7.2996 8.51064 7.39188 8.5467C7.48415 8.58277 7.56393 8.64492 7.62145 8.72558C7.67898 8.80624 7.71177 8.90191 7.71581 9.0009V11.0009H18.7158C18.981 11.0009 19.2354 11.1063 19.4229 11.2938C19.6105 11.4813 19.7158 11.7357 19.7158 12.0009C19.7158 12.2661 19.6105 12.5205 19.4229 12.708C19.2354 12.8955 18.981 13.0009 18.7158 13.0009H7.71581V15.0009C7.71452 15.1008 7.68334 15.1979 7.62631 15.2799C7.56927 15.3619 7.48899 15.4249 7.39581 15.4609C7.33663 15.4749 7.27499 15.4749 7.21581 15.4609C7.14659 15.4602 7.07821 15.4457 7.01468 15.4182C6.95114 15.3907 6.89373 15.3508 6.84581 15.3009L4.11581 12.3009C4.04098 12.2111 4 12.0978 4 11.9809C4 11.864 4.04098 11.7507 4.11581 11.6609Z" fill="currentColor"/>
</svg>
