<svg width="24" height="24" viewBox="0 0 24 24" fill="currentColor" xmlns="http://www.w3.org/2000/svg">
  <path d="M19.6 11.6609L16.87 8.6609C16.7999 8.59088 16.7109 8.5428 16.614 8.52252C16.517 8.50224 16.4162 8.51064 16.3239 8.5467C16.2317 8.58277 16.1519 8.64492 16.0944 8.72558C16.0368 8.80624 16.004 8.90191 16 9.0009V11.0009H5C4.73478 11.0009 4.48043 11.1063 4.29289 11.2938C4.10536 11.4813 4 11.7357 4 12.0009C4 12.2661 4.10536 12.5205 4.29289 12.708C4.48043 12.8955 4.73478 13.0009 5 13.0009H16V15.0009C16.0013 15.1008 16.0325 15.1979 16.0895 15.2799C16.1465 15.3619 16.2268 15.4249 16.32 15.4609C16.3792 15.4749 16.4408 15.4749 16.5 15.4609C16.5692 15.4602 16.6376 15.4457 16.7011 15.4182C16.7647 15.3907 16.8221 15.3508 16.87 15.3009L19.6 12.3009C19.6748 12.2111 19.7158 12.0978 19.7158 11.9809C19.7158 11.864 19.6748 11.7507 19.6 11.6609V11.6609Z" fill="currentColor"/>
</svg>
