<svg width="6" height="9" viewBox="0 0 6 9" fill="none" xmlns="http://www.w3.org/2000/svg">
  <path d="M5.33346 4.4998C5.33396 4.58754 5.31715 4.67451 5.28397 4.75574C5.25079 4.83696 5.20191 4.91084 5.14012 4.97313L1.80679 8.30646C1.74463 8.36862 1.67084 8.41793 1.58962 8.45157C1.50841 8.48521 1.42136 8.50253 1.33346 8.50253C1.24555 8.50253 1.1585 8.48521 1.07729 8.45157C0.996076 8.41793 0.922282 8.36862 0.860123 8.30646C0.797964 8.24431 0.748657 8.17051 0.715017 8.0893C0.681376 8.00808 0.664062 7.92104 0.664062 7.83313C0.664062 7.74523 0.681376 7.65818 0.715017 7.57697C0.748657 7.49575 0.797964 7.42196 0.860123 7.3598L3.72679 4.4998L0.860123 1.6398C0.734588 1.51426 0.664062 1.344 0.664062 1.16646C0.664062 0.98893 0.734588 0.818667 0.860123 0.693131C0.985659 0.567596 1.15592 0.49707 1.33346 0.49707C1.51099 0.49707 1.68125 0.567596 1.80679 0.693131L5.14012 4.02646C5.20191 4.08876 5.25079 4.16264 5.28397 4.24386C5.31715 4.32509 5.33396 4.41206 5.33346 4.4998Z" fill="currentColor"/>
</svg>
