<?xml version="1.0" encoding="UTF-8" standalone="no"?>
<svg
   viewBox="0 0 512 512"
   version="1.1"
   id="svg1"
   sodipodi:docname="x.svg"
   inkscape:version="1.4 (e7c3feb1, 2024-10-09)"
   xmlns:inkscape="http://www.inkscape.org/namespaces/inkscape"
   xmlns:sodipodi="http://sodipodi.sourceforge.net/DTD/sodipodi-0.dtd"
   xmlns="http://www.w3.org/2000/svg"
   xmlns:svg="http://www.w3.org/2000/svg">
  <defs
     id="defs1" />
  <sodipodi:namedview
     id="namedview1"
     pagecolor="#ffffff"
     bordercolor="#000000"
     borderopacity="0.25"
     inkscape:showpageshadow="2"
     inkscape:pageopacity="0.0"
     inkscape:pagecheckerboard="0"
     inkscape:deskcolor="#d1d1d1"
     inkscape:zoom="0.203125"
     inkscape:cx="647.38462"
     inkscape:cy="676.92308"
     inkscape:window-width="1376"
     inkscape:window-height="594"
     inkscape:window-x="0"
     inkscape:window-y="25"
     inkscape:window-maximized="0"
     inkscape:current-layer="svg1" />
  <!--! Font Awesome Free 6.1.1 by @fontawesome - https://fontawesome.com License - https://fontawesome.com/license/free (Icons: CC BY 4.0, Fonts: SIL OFL 1.1, Code: MIT License) Copyright 2022 Fonticons, Inc.-->
  <g
     id="g1"
     transform="matrix(0.30997351,0,0,0.3360656,-214.39965,60.491181)">
    <path
       d="m 985.292,141.75 c 2.987,4.262 72.163,104.95 153.725,223.75 81.562,118.8 156.999,228.665 167.639,244.145 10.639,15.48 19.344,28.456 19.344,28.836 0,0.38 -3.962,5.265 -8.804,10.855 -4.842,5.59 -18.481,21.414 -30.307,35.164 -11.827,13.75 -31.764,36.925 -44.305,51.5 -12.54,14.575 -34.602,40.225 -49.027,57 -14.424,16.775 -40.363,46.934 -57.642,67.02 -53.441,62.126 -61.153,71.099 -101.834,118.48 -21.722,25.3 -42.552,49.49 -46.288,53.756 -3.736,4.266 -6.793,8.204 -6.793,8.75 0,0.641 13.644,0.994 38.441,0.994 h 38.44 l 42.261,-49.25 c 23.244,-27.088 46.173,-53.75 50.953,-59.25 10.337,-11.892 89.167,-103.615 95.793,-111.46 2.537,-3.003 6.222,-7.278 8.189,-9.5 1.968,-2.222 17.477,-20.24 34.465,-40.04 16.987,-19.8 31.353,-36.485 31.922,-37.078 0.57,-0.592 9.563,-11.055 19.985,-23.25 10.422,-12.194 19.271,-22.172 19.664,-22.172 0.394,0 53.93,77.513 118.971,172.25 65.04,94.737 119.416,173.928 120.836,175.979 l 2.58,3.728 131.857,0.022 c 108.434,0.017 131.768,-0.212 131.353,-1.292 -0.44,-1.148 -63.614,-93.294 -225.685,-329.187 -116.673,-169.816 -132.187,-192.636 -131.742,-193.794 0.432,-1.126 16.324,-19.713 120.802,-141.289 17.922,-20.854 42.627,-49.617 54.9,-63.917 12.273,-14.3 24.665,-28.7 27.537,-32 2.872,-3.3 17.974,-20.85 33.56,-39 15.585,-18.15 42.08,-48.99 58.878,-68.533 16.797,-19.543 31.158,-36.305 31.912,-37.25 1.293,-1.617 -0.903,-1.717 -37.673,-1.717 h -39.045 l -17.366,20.25 c -23.113,26.95 -64.894,75.549 -76.758,89.282 -5.241,6.068 -11.78,13.694 -14.53,16.946 -2.75,3.252 -8.176,9.537 -12.057,13.967 -3.881,4.43 -23.44,27.18 -43.465,50.555 -20.024,23.375 -36.682,42.725 -37.018,43 -0.335,0.275 -4.626,5.252 -9.535,11.061 -8.586,10.16 -17.324,20.33 -57.398,66.804 -17.59,20.4 -18.492,21.276 -19.975,19.401 -0.853,-1.08 -52.402,-76.053 -114.552,-166.605 l -113,-164.64 -132.319,-0.011 -132.319,-0.01 5.43,7.75 m 103.273,53.992 c 0.994,1.517 25.716,36.958 54.939,78.758 55.423,79.276 273.213,390.986 413.277,591.5 44.758,64.075 81.924,117.066 82.592,117.758 0.954,0.989 13.986,1.203 60.894,1 L 1759.947,984.5 1603.776,761 C 1517.881,638.075 1393.52,460.1 1327.418,365.5 l -120.186,-172 -60.236,-0.258 -60.236,-0.258 1.805,2.758"
       stroke="none"
       fill="#fafafa"
       fill-rule="evenodd"
       id="path1-6" />
    <path
       d="m 681,580.501 v 741.5 l 741.75,-0.25 741.75,-0.251 0.251,-741.25 0.25,-741.25 h -742 H 681 v 741.501 m 0.497,0.499 c 0,407.825 0.114,574.662 0.253,370.75 0.139,-203.913 0.139,-537.588 0,-741.5 C 681.611,6.337 681.497,173.175 681.497,581 M 985.292,141.75 c 2.987,4.262 72.163,104.95 153.725,223.75 81.562,118.8 156.999,228.665 167.639,244.145 10.639,15.48 19.344,28.456 19.344,28.836 0,0.38 -3.962,5.265 -8.804,10.855 -4.842,5.59 -18.481,21.414 -30.307,35.164 -11.827,13.75 -31.764,36.925 -44.305,51.5 -12.54,14.575 -34.602,40.225 -49.027,57 -14.424,16.775 -40.363,46.934 -57.642,67.02 -53.441,62.126 -61.153,71.099 -101.834,118.48 -21.722,25.3 -42.552,49.49 -46.288,53.756 -3.736,4.266 -6.793,8.204 -6.793,8.75 0,0.641 13.644,0.994 38.441,0.994 h 38.44 l 42.261,-49.25 c 23.244,-27.088 46.173,-53.75 50.953,-59.25 10.337,-11.892 89.167,-103.615 95.793,-111.46 2.537,-3.003 6.222,-7.278 8.189,-9.5 1.968,-2.222 17.477,-20.24 34.465,-40.04 16.987,-19.8 31.353,-36.485 31.922,-37.078 0.57,-0.592 9.563,-11.055 19.985,-23.25 10.422,-12.194 19.271,-22.172 19.664,-22.172 0.394,0 53.93,77.513 118.971,172.25 65.04,94.737 119.416,173.928 120.836,175.979 l 2.58,3.728 131.857,0.022 c 108.434,0.017 131.768,-0.212 131.353,-1.292 -0.44,-1.148 -63.614,-93.294 -225.685,-329.187 -116.673,-169.816 -132.187,-192.636 -131.742,-193.794 0.432,-1.126 16.324,-19.713 120.802,-141.289 17.922,-20.854 42.627,-49.617 54.9,-63.917 12.273,-14.3 24.665,-28.7 27.537,-32 2.872,-3.3 17.974,-20.85 33.56,-39 15.585,-18.15 42.08,-48.99 58.878,-68.533 16.797,-19.543 31.158,-36.305 31.912,-37.25 1.293,-1.617 -0.903,-1.717 -37.673,-1.717 h -39.045 l -17.366,20.25 c -23.113,26.95 -64.894,75.549 -76.758,89.282 -5.241,6.068 -11.78,13.694 -14.53,16.946 -2.75,3.252 -8.176,9.537 -12.057,13.967 -3.881,4.43 -23.44,27.18 -43.465,50.555 -20.024,23.375 -36.682,42.725 -37.018,43 -0.335,0.275 -4.626,5.252 -9.535,11.061 -8.586,10.16 -17.324,20.33 -57.398,66.804 -17.59,20.4 -18.492,21.276 -19.975,19.401 -0.853,-1.08 -52.402,-76.053 -114.552,-166.605 l -113,-164.64 -132.319,-0.011 -132.319,-0.01 5.43,7.75 m 103.273,53.992 c 0.994,1.517 25.716,36.958 54.939,78.758 55.423,79.276 273.213,390.986 413.277,591.5 44.758,64.075 81.924,117.066 82.592,117.758 0.954,0.989 13.986,1.203 60.894,1 L 1759.947,984.5 1603.776,761 C 1517.881,638.075 1393.52,460.1 1327.418,365.5 l -120.186,-172 -60.236,-0.258 -60.236,-0.258 1.805,2.758"
       stroke="none"
       fill="#040404"
       fill-rule="evenodd"
       id="path2" />
  </g>
</svg>
