<svg width="195" height="60" viewBox="0 0 195 60" fill="none" xmlns="http://www.w3.org/2000/svg">
  <path d="M0 59.9998H194.709V1.78654e-05H0V59.9998Z" fill="#009C84"/>
  <path d="M51.087 7.54236L48.0371 17.4549C44.6403 15.5146 41.1745 14.5441 36.0449 14.5441C23.0128 14.5441 17.814 23.6939 17.814 32.844C17.814 40.8848 22.6663 45.4596 31.1233 45.4596C35.629 45.4596 39.9268 44.4891 43.3233 42.7566L41.9368 53.1546C38.7482 54.1939 33.4801 55.0261 29.0438 55.0261C13.7243 55.0261 4.50488 46.0839 4.50488 32.4972C4.50488 16.4844 15.6653 4.97792 34.0345 4.97792C40.8973 4.97792 46.6505 5.87909 51.087 7.54236Z" fill="white"/>
  <path d="M79.1629 15.7895L68.9034 34.7133H81.3811L79.301 15.7895H79.1629ZM89.0752 5.80796L96.9777 54.1921H83.9455L82.6284 43.8637H63.8431L58.0895 54.1921H44.0872L72.8547 5.80796H89.0752Z" fill="white"/>
  <path d="M121.173 14.9575L118.955 25.9104H123.322C128.313 25.9104 133.303 24.8008 133.303 19.9491C133.303 15.6513 129.976 14.9575 127.065 14.9575H121.173ZM110.429 5.80796H127.065C138.988 5.80796 146.196 8.30328 146.196 18.1466C146.196 25.1477 141.761 29.3764 132.125 30.5544V30.6932C134.898 30.9705 136.561 33.7435 137.532 37.8331L141.344 54.1921H128.451L125.887 41.4376C124.708 35.476 124.084 35.0602 118.261 35.0602H117.083L113.201 54.1921H100.239L110.429 5.80796Z" fill="white"/>
  <path d="M189.592 5.80796L187.721 14.9575H166.44L164.222 24.9399H184.394L182.383 34.0897H162.281L159.924 45.0419H182.037L180.165 54.1921H145.159L155.557 5.80796H189.592Z" fill="white"/>
</svg>
