<svg width="114" height="35" viewBox="0 0 114 35" fill="none" xmlns="http://www.w3.org/2000/svg">
  <g clip-path="url(#clip0_120_5922)">
    <path d="M0 35H113.577V0.00123978H0V35Z" fill="white"/>
    <path d="M29.8009 4.39965L28.0219 10.1818C26.0405 9.04997 24.0188 8.48387 21.0267 8.48387C13.4248 8.48387 10.3923 13.8211 10.3923 19.1585C10.3923 23.8488 13.2228 26.5174 18.1558 26.5174C20.7841 26.5174 23.2911 25.9513 25.2723 24.9406L24.4635 31.006C22.6036 31.6122 19.5306 32.0977 16.9428 32.0977C8.00674 32.0977 2.62891 26.8815 2.62891 18.9562C2.62891 9.6157 9.13894 2.90378 19.854 2.90378C23.8572 2.90378 27.2131 3.42944 29.8009 4.39965Z" fill="#009C84"/>
    <path d="M46.177 9.21147L40.1925 20.25H47.4709L46.2576 9.21147H46.177ZM51.959 3.38908L56.5687 31.6123H48.9667L48.1985 25.5876H37.2407L33.8846 31.6123H25.7168L42.4974 3.38908H51.959Z" fill="#009C84"/>
    <path d="M70.682 8.72713L69.388 15.1161H71.9355C74.8468 15.1161 77.7579 14.4689 77.7579 11.6388C77.7579 9.13179 75.8173 8.72713 74.119 8.72713H70.682ZM64.4147 3.39005H74.119C81.0736 3.39005 85.2786 4.84561 85.2786 10.5874C85.2786 14.6712 82.6914 17.1379 77.0708 17.825V17.906C78.6882 18.0678 79.6584 19.6853 80.2245 22.0708L82.4481 31.6133H74.9274L73.4316 24.1734C72.7442 20.6959 72.3803 20.4533 68.9837 20.4533H68.2966L66.0322 31.6133H58.4707L64.4147 3.39005Z" fill="#009C84"/>
    <path d="M110.592 3.39005L109.5 8.72713H97.087L95.7933 14.55H107.56L106.387 19.8872H94.6611L93.2863 26.2758H106.185L105.093 31.6133H84.6738L90.7389 3.39005H110.592Z" fill="#009C84"/>
  </g>
  <defs>
    <clipPath id="clip0_120_5922">
      <rect width="113.578" height="35" fill="white"/>
    </clipPath>
  </defs>
</svg>
