<svg width="130" height="40" viewBox="0 0 130 40" fill="none" xmlns="http://www.w3.org/2000/svg">
  <g clip-path="url(#clip0_1606_22736)">
    <path d="M0.196289 40H129.999V0.00141907H0.196289V40Z" fill="#00A189"/>
    <path d="M34.2549 5.0267L32.2217 11.6349C29.9573 10.3413 27.6468 9.69437 24.2272 9.69437C15.5394 9.69437 12.0736 15.794 12.0736 21.894C12.0736 27.2543 15.3084 30.3041 20.9462 30.3041C23.9499 30.3041 26.8151 29.6571 29.0793 28.5021L28.155 35.4339C26.0293 36.1268 22.5174 36.6816 19.56 36.6816C9.34727 36.6816 3.20117 30.7202 3.20117 21.6627C3.20117 10.9879 10.6412 3.31713 22.8869 3.31713C27.462 3.31713 31.2974 3.91789 34.2549 5.0267Z" fill="white"/>
    <path d="M52.97 10.5298L46.1306 23.1453H54.4488L53.0621 10.5298H52.97ZM59.578 3.87566L64.8462 36.1308H56.1583L55.2803 29.2454H42.7571L38.9215 36.1308H29.5869L48.7647 3.87566H59.578Z" fill="white"/>
    <path d="M80.9753 9.97517L79.4965 17.2769H82.4078C85.7351 17.2769 89.062 16.5372 89.062 13.3028C89.062 10.4376 86.8442 9.97517 84.9033 9.97517H80.9753ZM73.8127 3.87566H84.9033C92.8514 3.87566 97.6572 5.53915 97.6572 12.1011C97.6572 16.7684 94.7003 19.5875 88.2768 20.3728V20.4653C90.1253 20.6502 91.234 22.4987 91.881 25.2251L94.4223 36.1308H85.8272L84.1177 27.628C83.3321 23.6538 82.9162 23.3765 79.0344 23.3765H78.2491L75.6612 36.1308H67.0195L73.8127 3.87566Z" fill="white"/>
    <path d="M126.588 3.87566L125.34 9.97517H111.153L109.675 16.6299H123.122L121.782 22.7296H108.381L106.81 30.0308H121.551L120.303 36.1308H96.9668L103.898 3.87566H126.588Z" fill="white"/>
  </g>
  <defs>
    <clipPath id="clip0_1606_22736">
      <rect width="129.803" height="40" fill="white" transform="translate(0.196289)"/>
    </clipPath>
  </defs>
</svg>
